<?xml version="1.0" encoding="UTF-8" standalone="no"?><!DOCTYPE svg PUBLIC "-//W3C//DTD SVG 1.1//EN" "http://www.w3.org/Graphics/SVG/1.1/DTD/svg11.dtd"><svg width="100%" height="100%" viewBox="0 0 2709 2709" version="1.1" xmlns="http://www.w3.org/2000/svg" xmlns:xlink="http://www.w3.org/1999/xlink" xml:space="preserve" xmlns:serif="http://www.serif.com/" style="fill-rule:evenodd;clip-rule:evenodd;stroke-linejoin:round;stroke-miterlimit:2;"><rect id="Artboard1" x="0" y="0" width="2708.33" height="2708.33" style="fill:none;"/><path d="M414.751,1434.7l-1.136,707.033l470.136,-0l0,-565.23l284.091,-0l0,565.23l1087.09,-0l-0,-611.457l-123.871,0l0,508.737l-177.443,-0l0,-508.737l-123.604,0l0,508.737l-207.38,-0l2.197,-609.745l324.393,0l-971.168,-963.579l-901.346,968.243l338.045,0.768Zm-108.908,-98.625l221.774,0l-0,702.938l227.037,-0l-0,-567.622l536.991,-0l0,567.622l207.381,-0l-0,-702.938l214.532,0l-735.447,-707.051l-672.268,707.051Zm1330.26,-600.961l140.449,-151.276l855.075,845.43l-285.459,0l-92.454,-92.6l137.086,-0l-614.088,-581.242l-58.109,59.953l-82.5,-80.265Zm-399.733,-56.293l146.157,-152.389l910.773,902.836l-288.195,0l-91.912,-92.6l140.861,-0l-671.527,-645.8l-63.275,68.026l-82.882,-80.073Zm-121.096,125.988l84.184,80.116l-430.222,451.743l-158.312,-0l504.35,-531.859Zm234.703,231.015l-285.775,300.844l158.145,-0l211.162,-220.455l-83.532,-80.389Zm121.33,-126.984l82.745,80.532l41.528,-44.773l-82.288,-79.561l-41.985,43.802Z" style="fill:#da7c43;"/></svg>