<?xml version="1.0" standalone="no"?>
<!DOCTYPE svg PUBLIC "-//W3C//DTD SVG 20010904//EN"
 "http://www.w3.org/TR/2001/REC-SVG-20010904/DTD/svg10.dtd">
<svg version="1.0" xmlns="http://www.w3.org/2000/svg"
 width="700.000000pt" height="700.000000pt" viewBox="0 0 700.000000 700.000000"
 preserveAspectRatio="xMidYMid meet">
<metadata>
Created by potrace 1.14, written by Peter Selinger 2001-2017
</metadata>
<g transform="translate(0.000000,700.000000) scale(0.100000,-0.100000)"
fill="#000000" stroke="none">
<path d="M2509 5781 c-2 -5 -50 -58 -106 -118 -55 -59 -113 -121 -129 -138
-15 -16 -77 -83 -138 -149 -61 -65 -124 -133 -141 -151 -16 -17 -79 -85 -140
-150 -133 -143 -139 -150 -279 -300 -117 -126 -224 -241 -266 -286 -14 -14
-70 -75 -125 -134 -55 -59 -120 -129 -143 -154 -24 -25 -81 -86 -127 -136 -45
-49 -98 -106 -116 -126 -94 -99 -290 -310 -334 -358 -27 -30 -63 -68 -80 -86
-38 -39 -133 -143 -162 -175 l-22 -25 422 0 c232 0 428 -2 435 -4 9 -2 12
-194 12 -915 l0 -911 600 0 c329 1 602 4 607 8 4 4 7 333 8 730 l0 722 366 1
366 0 0 -721 c0 -397 2 -726 5 -731 5 -7 2693 -12 2789 -5 14 1 16 75 15 789
l-1 787 -153 0 c-94 1 -156 -3 -160 -10 -3 -5 -6 -300 -7 -655 l0 -645 -227
-3 -228 -2 -2 657 -3 658 -157 1 -158 1 0 -658 0 -659 -269 0 -268 0 3 788 2
787 404 2 c221 0 410 2 418 2 8 1 -193 207 -447 459 -254 251 -816 808 -1248
1237 -432 429 -792 781 -800 783 -7 2 -15 -1 -16 -7z m227 -606 c108 -104 258
-249 333 -321 75 -73 161 -155 191 -184 30 -29 144 -139 254 -244 109 -105
226 -217 260 -249 33 -33 153 -148 266 -257 113 -108 246 -236 295 -284 50
-47 83 -86 75 -86 -8 -1 -132 -2 -275 -3 l-260 -2 -1 -905 -1 -905 -266 -3
-267 -2 -1 32 c0 18 -1 349 -1 735 l-1 701 -693 0 -694 0 0 -734 0 -734 -292
2 -293 3 -1 900 c-1 495 -2 903 -3 907 -1 4 -125 7 -277 7 -151 -1 -278 1
-280 4 -4 4 35 46 302 326 50 53 107 112 125 132 19 20 102 108 185 195 84 88
175 184 204 214 29 30 89 93 133 140 141 148 393 413 433 456 176 188 339 354
345 352 4 -2 96 -88 205 -193z"/>
<path d="M2795 4827 c-76 -79 -287 -300 -455 -478 -253 -267 -328 -346 -406
-428 -51 -53 -106 -112 -124 -131 -17 -19 -66 -71 -108 -115 -43 -44 -87 -91
-99 -105 l-22 -25 204 0 203 1 93 98 c52 55 114 120 139 146 79 83 346 363
400 420 29 30 125 132 214 225 90 94 186 195 214 225 l51 54 -52 50 c-29 27
-77 73 -107 103 l-56 53 -89 -93z"/>
<path d="M3365 4194 c-66 -70 -136 -143 -155 -164 -40 -42 -326 -343 -380
-400 -19 -20 -45 -47 -57 -61 l-22 -24 202 0 202 0 68 70 c38 39 142 146 230
239 89 93 181 188 205 212 23 24 42 45 42 48 0 6 -199 200 -208 204 -4 1 -61
-55 -127 -124z"/>
<path d="M3465 5528 c-59 -62 -144 -150 -188 -195 l-79 -82 23 -28 c13 -15 61
-63 105 -106 l81 -78 55 58 c31 32 67 71 82 87 l26 29 27 -24 c36 -32 53 -49
313 -299 123 -118 240 -231 260 -250 20 -19 137 -132 260 -250 123 -118 245
-235 271 -260 25 -25 136 -131 245 -236 110 -106 235 -226 279 -268 61 -58 75
-76 60 -77 -11 0 -90 -2 -175 -4 -85 -1 -156 -3 -158 -4 -2 0 49 -54 112 -118
l116 -117 358 -1 c196 0 363 1 370 4 8 2 -139 154 -352 365 -284 281 -1950
1932 -1977 1960 -3 3 -54 -45 -114 -106z"/>
<path d="M4570 5471 c-13 -16 -161 -177 -240 -261 -14 -14 -43 -45 -65 -68
l-39 -42 104 -100 c58 -55 108 -100 111 -100 4 0 40 34 79 75 l73 74 32 -32
c18 -18 99 -95 181 -172 81 -77 170 -162 198 -188 58 -55 302 -286 358 -339
35 -33 302 -286 373 -353 18 -16 94 -88 169 -160 256 -241 270 -255 255 -256
-8 0 -81 -2 -164 -4 -82 -1 -154 -3 -158 -4 -4 0 44 -53 108 -118 l115 -116
365 -1 c201 -1 365 2 365 5 0 5 -995 992 -1523 1512 -111 109 -308 304 -438
433 -129 128 -237 234 -240 234 -2 0 -11 -9 -19 -19z"/>
<path d="M3857 4710 c-26 -27 -47 -53 -47 -58 0 -4 46 -53 103 -109 73 -71
105 -97 112 -89 6 6 30 32 54 59 l44 47 -104 100 c-57 55 -106 100 -109 100
-3 0 -27 -22 -53 -50z"/>
</g>
</svg>
